<?xml version="1.0" encoding="UTF-8" standalone="no"?><svg xmlns="http://www.w3.org/2000/svg" xmlns:xlink="http://www.w3.org/1999/xlink" contentScriptType="application/ecmascript" contentStyleType="text/css" height="654px" preserveAspectRatio="none" style="width:1257px;height:654px;" version="1.1" viewBox="0 0 1257 654" width="1257px" zoomAndPan="magnify"><defs><filter height="300%" id="f1qal7szlf8alu" width="300%" x="-1" y="-1"><feGaussianBlur result="blurOut" stdDeviation="2.0"/><feColorMatrix in="blurOut" result="blurOut2" type="matrix" values="0 0 0 0 0 0 0 0 0 0 0 0 0 0 0 0 0 0 .4 0"/><feOffset dx="4.0" dy="4.0" in="blurOut2" result="blurOut3"/><feBlend in="SourceGraphic" in2="blurOut3" mode="normal"/></filter></defs><g><ellipse cx="563.8701" cy="168.4517" fill="#FFFFFF" filter="url(#f1qal7szlf8alu)" rx="29.8701" ry="15.4517" style="stroke: #000000; stroke-width: 1.5;"/><text fill="#000000" font-family="sans-serif" font-size="14" lengthAdjust="spacingAndGlyphs" textLength="38" x="544.8701" y="173.7564">Поиск</text><ellipse cx="435.1378" cy="269.9852" fill="#FFFFFF" filter="url(#f1qal7szlf8alu)" rx="74.1378" ry="25.9852" style="stroke: #000000; stroke-width: 1.5;"/><text fill="#000000" font-family="sans-serif" font-size="14" lengthAdjust="spacingAndGlyphs" textLength="65" x="402.6378" y="263.6483">Просмотр</text><text fill="#000000" font-family="sans-serif" font-size="14" lengthAdjust="spacingAndGlyphs" textLength="109" x="380.6378" y="281.2577">списка объектов</text><ellipse cx="335.2178" cy="383.9584" fill="#FFFFFF" filter="url(#f1qal7szlf8alu)" rx="47.2178" ry="26.9584" style="stroke: #000000; stroke-width: 1.5;"/><text fill="#000000" font-family="sans-serif" font-size="14" lengthAdjust="spacingAndGlyphs" textLength="65" x="302.7178" y="381.8223">Просмотр</text><text fill="#000000" font-family="sans-serif" font-size="14" lengthAdjust="spacingAndGlyphs" textLength="54" x="308.2178" y="399.4317">объекта</text><ellipse cx="218.1712" cy="499.8355" fill="#FFFFFF" filter="url(#f1qal7szlf8alu)" rx="67.1712" ry="27.8355" style="stroke: #000000; stroke-width: 1.5;"/><text fill="#000000" font-family="sans-serif" font-size="14" lengthAdjust="spacingAndGlyphs" textLength="91" x="172.6712" y="496.4317">Добавление в</text><text fill="#000000" font-family="sans-serif" font-size="14" lengthAdjust="spacingAndGlyphs" textLength="90" x="173.1712" y="514.0411">свои объекты</text><ellipse cx="392.0806" cy="499.9141" fill="#FFFFFF" filter="url(#f1qal7szlf8alu)" rx="71.5806" ry="26.9141" style="stroke: #000000; stroke-width: 1.5;"/><text fill="#000000" font-family="sans-serif" font-size="14" lengthAdjust="spacingAndGlyphs" textLength="83" x="350.5806" y="494.9848">Удаление из</text><text fill="#000000" font-family="sans-serif" font-size="14" lengthAdjust="spacingAndGlyphs" textLength="101" x="341.5806" y="512.5941">своих объектов</text><ellipse cx="556.7876" cy="500.1194" fill="#FFFFFF" filter="url(#f1qal7szlf8alu)" rx="57.7876" ry="27.1194" style="stroke: #000000; stroke-width: 1.5;"/><text fill="#000000" font-family="sans-serif" font-size="14" lengthAdjust="spacingAndGlyphs" textLength="80" x="516.7876" y="497.7468">Добавление</text><text fill="#000000" font-family="sans-serif" font-size="14" lengthAdjust="spacingAndGlyphs" textLength="69" x="522.2876" y="515.3562">в закладки</text><ellipse cx="60.9676" cy="500.082" fill="#FFFFFF" filter="url(#f1qal7szlf8alu)" rx="54.9676" ry="27.082" style="stroke: #000000; stroke-width: 1.5;"/><text fill="#000000" font-family="sans-serif" font-size="14" lengthAdjust="spacingAndGlyphs" textLength="65" x="28.4676" y="495.3999">Удаление</text><text fill="#000000" font-family="sans-serif" font-size="14" lengthAdjust="spacingAndGlyphs" textLength="76" x="22.9676" y="513.0093">из закладок</text><ellipse cx="870.0746" cy="383.9034" fill="#FFFFFF" filter="url(#f1qal7szlf8alu)" rx="80.0746" ry="27.9034" style="stroke: #000000; stroke-width: 1.5;"/><text fill="#000000" font-family="sans-serif" font-size="14" lengthAdjust="spacingAndGlyphs" textLength="109" x="815.5746" y="380.4034">Редактирование</text><text fill="#000000" font-family="sans-serif" font-size="14" lengthAdjust="spacingAndGlyphs" textLength="109" x="815.5746" y="398.0128">списка объектов</text><ellipse cx="705.8596" cy="499.7706" fill="#FFFFFF" filter="url(#f1qal7szlf8alu)" rx="55.8596" ry="26.2706" style="stroke: #000000; stroke-width: 1.5;"/><text fill="#000000" font-family="sans-serif" font-size="14" lengthAdjust="spacingAndGlyphs" textLength="80" x="665.8596" y="498.6671">Добавление</text><text fill="#000000" font-family="sans-serif" font-size="14" lengthAdjust="spacingAndGlyphs" textLength="54" x="678.8596" y="516.2765">объекта</text><ellipse cx="870.1824" cy="500.1765" fill="#FFFFFF" filter="url(#f1qal7szlf8alu)" rx="73.1824" ry="25.6765" style="stroke: #000000; stroke-width: 1.5;"/><text fill="#000000" font-family="sans-serif" font-size="14" lengthAdjust="spacingAndGlyphs" textLength="109" x="815.6824" y="499.9983">Редактирование</text><text fill="#000000" font-family="sans-serif" font-size="14" lengthAdjust="spacingAndGlyphs" textLength="54" x="843.1824" y="517.6077">объекта</text><ellipse cx="783.0534" cy="615.735" fill="#FFFFFF" filter="url(#f1qal7szlf8alu)" rx="79.5534" ry="27.735" style="stroke: #000000; stroke-width: 1.5;"/><text fill="#000000" font-family="sans-serif" font-size="14" lengthAdjust="spacingAndGlyphs" textLength="109" x="728.5534" y="612.474">Редактирование</text><text fill="#000000" font-family="sans-serif" font-size="14" lengthAdjust="spacingAndGlyphs" textLength="106" x="730.0534" y="630.0834">данных объекта</text><ellipse cx="957.0137" cy="615.7086" fill="#FFFFFF" filter="url(#f1qal7szlf8alu)" rx="59.0137" ry="26.2086" style="stroke: #000000; stroke-width: 1.5;"/><text fill="#000000" font-family="sans-serif" font-size="14" lengthAdjust="spacingAndGlyphs" textLength="56" x="929.0137" y="609.7171">Загрузка</text><text fill="#000000" font-family="sans-serif" font-size="14" lengthAdjust="spacingAndGlyphs" textLength="85" x="914.5137" y="627.3265">медиафайла</text><ellipse cx="1025.2178" cy="499.9584" fill="#FFFFFF" filter="url(#f1qal7szlf8alu)" rx="47.2178" ry="26.9584" style="stroke: #000000; stroke-width: 1.5;"/><text fill="#000000" font-family="sans-serif" font-size="14" lengthAdjust="spacingAndGlyphs" textLength="65" x="992.7178" y="497.8223">Удаление</text><text fill="#000000" font-family="sans-serif" font-size="14" lengthAdjust="spacingAndGlyphs" textLength="54" x="998.2178" y="515.4317">объекта</text><ellipse cx="1176.8943" cy="500.1517" fill="#FFFFFF" filter="url(#f1qal7szlf8alu)" rx="69.3943" ry="26.1517" style="stroke: #000000; stroke-width: 1.5;"/><text fill="#000000" font-family="sans-serif" font-size="14" lengthAdjust="spacingAndGlyphs" textLength="65" x="1144.3943" y="494.0727">Просмотр</text><text fill="#000000" font-family="sans-serif" font-size="14" lengthAdjust="spacingAndGlyphs" textLength="101" x="1126.3943" y="511.6821">своих объектов</text><!--entity Актор--><ellipse cx="822" cy="18" fill="#FFFFFF" filter="url(#f1qal7szlf8alu)" rx="8" ry="8" style="stroke: #000000; stroke-width: 2.0;"/><path d="M822,26 L822,53 M809,34 L835,34 M822,53 L809,68 M822,53 L835,68 " fill="none" filter="url(#f1qal7szlf8alu)" style="stroke: #000000; stroke-width: 2.0;"/><text fill="#000000" font-family="sans-serif" font-size="14" lengthAdjust="spacingAndGlyphs" textLength="38" x="803" y="89.5332">Актор</text><!--link Актор to Поиск--><path d="M802.608,60.219 C756.97,80.738 642.713,132.109 590.627,155.528 " fill="none" id="Актор-&gt;Поиск" style="stroke: #000000; stroke-width: 1.0;"/><polygon fill="#000000" points="585.785,157.705,595.6338,157.663,590.3454,155.6548,592.3535,150.3664,585.785,157.705" style="stroke: #000000; stroke-width: 1.0;"/><!--link Актор to Просмотр_своих_объектов--><path d="M841.086,75.56 C901.642,151.894 1089.29,388.436 1154.44,470.563 " fill="none" id="Актор-&gt;Просмотр_своих_объектов" style="stroke: #000000; stroke-width: 1.0;"/><polygon fill="#000000" points="1157.82,474.821,1155.3574,465.285,1154.7114,470.9048,1149.0915,470.2588,1157.82,474.821" style="stroke: #000000; stroke-width: 1.0;"/><!--reverse link Поиск to Просмотр_списка_объектов--><path d="M537.69,189.793 C516.513,206.128 486.751,229.083 464.717,246.079 " fill="none" id="Поиск&lt;-Просмотр_списка_объектов" style="stroke: #000000; stroke-width: 1.0;"/><polygon fill="#FFFFFF" points="548.182,181.701,540.9881,182.1986,538.6805,189.0305,545.8744,188.5329,548.182,181.701" style="stroke: #000000; stroke-width: 1.0;"/><!--reverse link Просмотр_списка_объектов to Просмотр_объекта--><path d="M404.712,304.923 C388.998,322.523 370.191,343.586 356.074,359.397 " fill="none" id="Просмотр_списка_объектов&lt;-Просмотр_объекта" style="stroke: #000000; stroke-width: 1.0;"/><polygon fill="#FFFFFF" points="413.547,295.027,406.5673,296.839,405.5553,303.9787,412.5351,302.1667,413.547,295.027" style="stroke: #000000; stroke-width: 1.0;"/><!--reverse link Просмотр_списка_объектов to Добавление_в_свои_объекты--><path d="M367.631,292.408 C334.341,305.984 295.869,326.62 270,356 C240.584,389.408 227.364,440.789 221.763,472.011 " fill="none" id="Просмотр_списка_объектов&lt;-Добавление_в_свои_объекты" style="stroke: #000000; stroke-width: 1.0;"/><polygon fill="#FFFFFF" points="380.098,287.547,373.0548,286.0002,368.918,291.9067,375.9612,293.4535,380.098,287.547" style="stroke: #000000; stroke-width: 1.0;"/><!--reverse link Просмотр_списка_объектов to Удаление_из_своих_объектов--><path d="M427.823,309.053 C419.068,355.478 404.498,432.73 396.92,472.915 " fill="none" id="Просмотр_списка_объектов&lt;-Удаление_из_своих_объектов" style="stroke: #000000; stroke-width: 1.0;"/><polygon fill="#FFFFFF" points="430.234,296.271,425.1917,301.4261,428.0108,308.0633,433.0532,302.9082,430.234,296.271" style="stroke: #000000; stroke-width: 1.0;"/><!--reverse link Просмотр_списка_объектов to Добавление_в_закладки--><path d="M454.506,307.455 C479.364,353.909 521.697,433.025 543.356,473.501 " fill="none" id="Просмотр_списка_объектов&lt;-Добавление_в_закладки" style="stroke: #000000; stroke-width: 1.0;"/><polygon fill="#FFFFFF" points="448.288,295.834,447.5915,303.0114,453.9489,306.4148,454.6454,299.2374,448.288,295.834" style="stroke: #000000; stroke-width: 1.0;"/><!--reverse link Просмотр_списка_объектов to Удаление_из_закладок--><path d="M369.714,292.647 C328.686,307.608 275.486,329.547 232,356 C174.304,391.096 115.812,444.789 84.416,475.419 " fill="none" id="Просмотр_списка_объектов&lt;-Удаление_из_закладок" style="stroke: #000000; stroke-width: 1.0;"/><polygon fill="#FFFFFF" points="382.031,288.231,375.0331,286.4905,370.735,292.2807,377.7329,294.0212,382.031,288.231" style="stroke: #000000; stroke-width: 1.0;"/><!--reverse link Просмотр_объекта to Добавление_в_свои_объекты--><path d="M302.404,416.761 C283.938,434.753 261.157,456.95 243.918,473.746 " fill="none" id="Просмотр_объекта&lt;-Добавление_в_свои_объекты" style="stroke: #000000; stroke-width: 1.0;"/><polygon fill="#FFFFFF" points="311.885,407.523,304.7962,408.8453,303.2903,415.8975,310.3792,414.5751,311.885,407.523" style="stroke: #000000; stroke-width: 1.0;"/><!--reverse link Просмотр_объекта to Удаление_из_своих_объектов--><path d="M353.481,421.962 C361.88,438.76 371.609,458.218 379.188,473.376 " fill="none" id="Просмотр_объекта&lt;-Удаление_из_своих_объектов" style="stroke: #000000; stroke-width: 1.0;"/><polygon fill="#FFFFFF" points="347.65,410.3,346.7556,417.4554,353.0166,421.0331,353.911,413.8777,347.65,410.3" style="stroke: #000000; stroke-width: 1.0;"/><!--reverse link Просмотр_объекта to Добавление_в_закладки--><path d="M380.991,408.617 C421.839,429.593 480.824,459.882 519.039,479.506 " fill="none" id="Просмотр_объекта&lt;-Добавление_в_закладки" style="stroke: #000000; stroke-width: 1.0;"/><polygon fill="#FFFFFF" points="369.201,402.563,372.7111,408.8621,379.8757,408.0448,376.3656,401.7456,369.201,402.563" style="stroke: #000000; stroke-width: 1.0;"/><!--reverse link Просмотр_объекта to Удаление_из_закладок--><path d="M285.757,405.488 C233.332,427.3 151.302,461.429 102.1833,481.865 " fill="none" id="Просмотр_объекта&lt;-Удаление_из_закладок" style="stroke: #000000; stroke-width: 1.0;"/><polygon fill="#FFFFFF" points="297.762,400.493,290.6859,399.1042,286.6823,405.1018,293.7585,406.4906,297.762,400.493" style="stroke: #000000; stroke-width: 1.0;"/><!--reverse link Просмотр_списка_объектов to Редактирование_списка_объектов--><path d="M513.139,291.119 C597.087,312.733 728.884,346.667 806.631,366.684 " fill="none" id="Просмотр_списка_объектов&lt;-Редактирование_списка_объектов" style="stroke: #000000; stroke-width: 1.0;"/><polygon fill="none" points="511.289,297.871,493.666,286.105,514.78,284.313,511.289,297.871" style="stroke: #000000; stroke-width: 1.0;"/><!--reverse link Редактирование_списка_объектов to Добавление_объекта--><path d="M824.111,416.899 C796.197,436.302 761.307,460.555 736.707,477.655 " fill="none" id="Редактирование_списка_объектов&lt;-Добавление_объекта" style="stroke: #000000; stroke-width: 1.0;"/><polygon fill="#FFFFFF" points="834.818,409.456,827.6083,409.5962,824.9647,416.3053,832.1745,416.1651,834.818,409.456" style="stroke: #000000; stroke-width: 1.0;"/><!--reverse link Редактирование_списка_объектов to Редактирование_объекта--><path d="M870,425.118 C870,441.441 870,459.794 870,474.125 " fill="none" id="Редактирование_списка_объектов&lt;-Редактирование_объекта" style="stroke: #000000; stroke-width: 1.0;"/><polygon fill="#FFFFFF" points="870,412.016,866,418.016,870,424.016,874,418.016,870,412.016" style="stroke: #000000; stroke-width: 1.0;"/><!--reverse link Редактирование_объекта to Редактирование_данных_объекта--><path d="M843.546,535.512 C830.407,552.653 814.804,573.0089 802.728,588.7628 " fill="none" id="Редактирование_объекта&lt;-Редактирование_данных_объекта" style="stroke: #000000; stroke-width: 1.0;"/><polygon fill="#FFFFFF" points="851.762,524.793,844.9372,527.1214,844.4615,534.3168,851.2864,531.9884,851.762,524.793" style="stroke: #000000; stroke-width: 1.0;"/><!--reverse link Редактирование_объекта to Загрузка_медиафайла--><path d="M896.172,535.144 C909.924,553.0842 926.437,574.6277 938.786,590.738 " fill="none" id="Редактирование_объекта&lt;-Загрузка_медиафайла" style="stroke: #000000; stroke-width: 1.0;"/><polygon fill="#FFFFFF" points="888.238,524.793,888.7136,531.9884,895.5385,534.3168,895.0628,527.1214,888.238,524.793" style="stroke: #000000; stroke-width: 1.0;"/><!--reverse link Редактирование_списка_объектов to Удаление_объекта--><path d="M914.175,417.49 C940.668,436.975 973.579,461.181 996.627,478.132 " fill="none" id="Редактирование_списка_объектов&lt;-Удаление_объекта" style="stroke: #000000; stroke-width: 1.0;"/><polygon fill="#FFFFFF" points="903.633,409.736,906.0964,416.5133,913.2998,416.846,910.8364,410.0687,903.633,409.736" style="stroke: #000000; stroke-width: 1.0;"/><!--reverse link Редактирование_списка_объектов to Просмотр_своих_объектов--><path d="M942.458,411.906 C999.933,433.249 1078.66,462.484 1128.68,481.058 " fill="none" id="Редактирование_списка_объектов&lt;-Просмотр_своих_объектов" style="stroke: #000000; stroke-width: 1.0;"/><polygon fill="none" points="939.788,418.382,923.475,404.857,944.661,405.257,939.788,418.382" style="stroke: #000000; stroke-width: 1.0;"/><!--
@startuml
skinparam BackgroundColor #FFFFFF
skinparam ArrowColor #000000

skinparam titleBorderRoundCorner 15
skinparam titleBorderThickness 2
skinparam titleBorderColor Red
skinparam titleBackgroundColor Cyan

skinparam ActorBorderColor #000000
skinparam ActorBackgroundColor #FFFFFF
skinparam UsecaseBorderColor #000000
skinparam UsecaseBackgroundColor #FFFFFF

(Поиск) as (Поиск)
(Просмотр \n списка объектов) as (Просмотр_списка_объектов)
    (Просмотр \n объекта) as (Просмотр_объекта)
        (Добавление в \n свои объекты) as (Добавление_в_свои_объекты)
        (Удаление из \n своих объектов) as (Удаление_из_своих_объектов)
        (Добавление \n в закладки) as (Добавление_в_закладки)
        (Удаление \n из закладок) as (Удаление_из_закладок)
(Редактирование \n списка объектов) as (Редактирование_списка_объектов)
    (Добавление \n объекта) as (Добавление_объекта)
    (Редактирование \n объекта) as (Редактирование_объекта)
        (Редактирование \n данных объекта) as (Редактирование_данных_объекта)
        (Загрузка \n медиафайла) as (Загрузка_медиафайла)
    (Удаление \n объекта) as (Удаление_объекта)
(Просмотр \n своих объектов) as (Просмотр_своих_объектов)

Актор - -> (Поиск)
Актор - -> (Просмотр_своих_объектов)

(Поиск) o- - (Просмотр_списка_объектов)
(Просмотр_списка_объектов) o- - (Просмотр_объекта)
(Просмотр_списка_объектов) o- - (Добавление_в_свои_объекты)
(Просмотр_списка_объектов) o- - (Удаление_из_своих_объектов)
(Просмотр_списка_объектов) o- - (Добавление_в_закладки)
(Просмотр_списка_объектов) o- - (Удаление_из_закладок)
(Просмотр_объекта) o- - (Добавление_в_свои_объекты)
(Просмотр_объекта) o- - (Удаление_из_своих_объектов)
(Просмотр_объекта) o- - (Добавление_в_закладки)
(Просмотр_объекта) o- - (Удаление_из_закладок)
(Просмотр_списка_объектов) <|- - (Редактирование_списка_объектов)
(Редактирование_списка_объектов) o- - (Добавление_объекта)
(Редактирование_списка_объектов) o- - (Редактирование_объекта)
(Редактирование_объекта) o- - (Редактирование_данных_объекта)
(Редактирование_объекта) o- - (Загрузка_медиафайла)
(Редактирование_списка_объектов) o- - (Удаление_объекта)
(Редактирование_списка_объектов) <|- - (Просмотр_своих_объектов)

@enduml

PlantUML version 1.2019.09(Mon Aug 26 23:19:51 GMT+07:00 2019)
(GPL source distribution)
Java Runtime: Java(TM) SE Runtime Environment
JVM: Java HotSpot(TM) 64-Bit Server VM
Java Version: 1.8.0_221-b11
Operating System: Windows 7
OS Version: 6.1
Default Encoding: Cp1251
Language: ru
Country: RU
--></g></svg>