<?xml version="1.0" encoding="UTF-8" standalone="no"?>
<svg xmlns="http://www.w3.org/2000/svg" xmlns:xlink="http://www.w3.org/1999/xlink" contentScriptType="application/ecmascript" contentStyleType="text/css" height="652px" preserveAspectRatio="none" style="width:384px;height:652px;" version="1.1" viewBox="0 0 384 652" width="384px" zoomAndPan="magnify"><defs><filter height="300%" id="f194z5jy6xpj7t" width="300%" x="-1" y="-1"><feGaussianBlur result="blurOut" stdDeviation="2.0"/><feColorMatrix in="blurOut" result="blurOut2" type="matrix" values="0 0 0 0 0 0 0 0 0 0 0 0 0 0 0 0 0 0 .4 0"/><feOffset dx="4.0" dy="4.0" in="blurOut2" result="blurOut3"/><feBlend in="SourceGraphic" in2="blurOut3" mode="normal"/></filter></defs><g><!--class Блогер--><rect fill="#FEFECE" filter="url(#f194z5jy6xpj7t)" height="73.6094" id="Блогер" style="stroke: #A80036; stroke-width: 1.5;" width="152" x="112.5" y="8"/><ellipse cx="161.25" cy="24" fill="#ADD1B2" rx="11" ry="11" style="stroke: #A80036; stroke-width: 1.0;"/><path d="M159.5469,24.875 L159.5469,27.2969 L163.9063,27.2969 L163.9063,26.4219 C163.9063,25.9375 163.9375,25.7969 164.0469,25.6406 C164.2188,25.3906 164.4844,25.2813 164.75,25.2813 C165.0313,25.2813 165.3125,25.4375 165.4844,25.6875 C165.5625,25.8438 165.5938,25.9844 165.5938,26.4219 L165.5938,29 L157.5938,29 C157.2031,29 156.9688,28.9531 156.8281,28.8281 C156.6094,28.6719 156.4688,28.4219 156.4688,28.1563 C156.4688,27.8594 156.625,27.5938 156.875,27.4219 C157.0313,27.3125 157.1875,27.2969 157.5938,27.2969 L157.8438,27.2969 L157.8438,20.7813 L157.5938,20.7813 C157.1719,20.7813 156.9844,20.75 156.8281,20.6406 C156.6094,20.4688 156.4688,20.2188 156.4688,19.9375 C156.4688,19.6563 156.625,19.3594 156.875,19.2031 C157.0313,19.1094 157.1563,19.0938 157.5938,19.0938 L165.2188,19.0938 L165.2188,21.6406 C165.2188,22.1094 165.1875,22.25 165.0781,22.4219 C164.9063,22.6406 164.6406,22.7813 164.375,22.7813 C164.0938,22.7813 163.8125,22.625 163.6406,22.375 C163.5625,22.2188 163.5313,22.0469 163.5313,21.6406 L163.5313,20.7813 L159.5469,20.7813 L159.5469,23.1875 L161,23.1875 L161,23.0625 C161,22.6094 161.0313,22.4531 161.1406,22.2813 C161.3125,22.0625 161.5781,21.9219 161.8281,21.9219 C162.2813,21.9219 162.5938,22.2344 162.6563,22.7031 C162.6719,22.8594 162.6719,22.9063 162.6719,23.0625 L162.6719,24.9844 C162.6719,25.4375 162.6406,25.5938 162.5156,25.75 C162.3594,25.9688 162.0938,26.1094 161.8438,26.1094 C161.5469,26.1094 161.2656,25.9531 161.1094,25.7031 C161.0313,25.5469 161,25.3906 161,24.9844 L161,24.875 Z "/><text fill="#000000" font-family="sans-serif" font-size="12" lengthAdjust="spacingAndGlyphs" textLength="46" x="181.75" y="28.1543">Блогер</text><line style="stroke: #A80036; stroke-width: 1.5;" x1="113.5" x2="263.5" y1="40" y2="40"/><ellipse cx="123.5" cy="51.9023" fill="#000000" rx="3" ry="3" style="stroke: #000000; stroke-width: 1.0;"/><text fill="#000000" font-family="sans-serif" font-size="11" lengthAdjust="spacingAndGlyphs" textLength="69" x="132.5" y="54.2104">Имя : Текст</text><text fill="#000000" font-family="sans-serif" font-size="11" lengthAdjust="spacingAndGlyphs" textLength="126" x="132.5" y="67.0151">Комментарий : Текст</text><line style="stroke: #A80036; stroke-width: 1.5;" x1="113.5" x2="263.5" y1="73.6094" y2="73.6094"/><!--class Блог--><rect fill="#FEFECE" filter="url(#f194z5jy6xpj7t)" height="73.6094" id="Блог" style="stroke: #A80036; stroke-width: 1.5;" width="147" x="115" y="142"/><ellipse cx="169.25" cy="158" fill="#ADD1B2" rx="11" ry="11" style="stroke: #A80036; stroke-width: 1.0;"/><path d="M167.5469,158.875 L167.5469,161.2969 L171.9063,161.2969 L171.9063,160.4219 C171.9063,159.9375 171.9375,159.7969 172.0469,159.6406 C172.2188,159.3906 172.4844,159.2813 172.75,159.2813 C173.0313,159.2813 173.3125,159.4375 173.4844,159.6875 C173.5625,159.8438 173.5938,159.9844 173.5938,160.4219 L173.5938,163 L165.5938,163 C165.2031,163 164.9688,162.9531 164.8281,162.8281 C164.6094,162.6719 164.4688,162.4219 164.4688,162.1563 C164.4688,161.8594 164.625,161.5938 164.875,161.4219 C165.0313,161.3125 165.1875,161.2969 165.5938,161.2969 L165.8438,161.2969 L165.8438,154.7813 L165.5938,154.7813 C165.1719,154.7813 164.9844,154.75 164.8281,154.6406 C164.6094,154.4688 164.4688,154.2188 164.4688,153.9375 C164.4688,153.6563 164.625,153.3594 164.875,153.2031 C165.0313,153.1094 165.1563,153.0938 165.5938,153.0938 L173.2188,153.0938 L173.2188,155.6406 C173.2188,156.1094 173.1875,156.25 173.0781,156.4219 C172.9063,156.6406 172.6406,156.7813 172.375,156.7813 C172.0938,156.7813 171.8125,156.625 171.6406,156.375 C171.5625,156.2188 171.5313,156.0469 171.5313,155.6406 L171.5313,154.7813 L167.5469,154.7813 L167.5469,157.1875 L169,157.1875 L169,157.0625 C169,156.6094 169.0313,156.4531 169.1406,156.2813 C169.3125,156.0625 169.5781,155.9219 169.8281,155.9219 C170.2813,155.9219 170.5938,156.2344 170.6563,156.7031 C170.6719,156.8594 170.6719,156.9063 170.6719,157.0625 L170.6719,158.9844 C170.6719,159.4375 170.6406,159.5938 170.5156,159.75 C170.3594,159.9688 170.0938,160.1094 169.8438,160.1094 C169.5469,160.1094 169.2656,159.9531 169.1094,159.7031 C169.0313,159.5469 169,159.3906 169,158.9844 L169,158.875 Z "/><text fill="#000000" font-family="sans-serif" font-size="12" lengthAdjust="spacingAndGlyphs" textLength="30" x="189.75" y="162.1543">Блог</text><line style="stroke: #A80036; stroke-width: 1.5;" x1="116" x2="261" y1="174" y2="174"/><ellipse cx="126" cy="185.9023" fill="#000000" rx="3" ry="3" style="stroke: #000000; stroke-width: 1.0;"/><text fill="#000000" font-family="sans-serif" font-size="11" lengthAdjust="spacingAndGlyphs" textLength="121" x="135" y="188.2104">Владелец : Счетчик</text><text fill="#000000" font-family="sans-serif" font-size="11" lengthAdjust="spacingAndGlyphs" textLength="104" x="135" y="201.0151">Записи : Счетчик</text><line style="stroke: #A80036; stroke-width: 1.5;" x1="116" x2="261" y1="207.6094" y2="207.6094"/><!--class Запись--><rect fill="#FEFECE" filter="url(#f194z5jy6xpj7t)" height="86.4141" id="Запись" style="stroke: #A80036; stroke-width: 1.5;" width="137" x="120" y="276"/><ellipse cx="161.55" cy="292" fill="#ADD1B2" rx="11" ry="11" style="stroke: #A80036; stroke-width: 1.0;"/><path d="M159.8469,292.875 L159.8469,295.2969 L164.2063,295.2969 L164.2063,294.4219 C164.2063,293.9375 164.2375,293.7969 164.3469,293.6406 C164.5188,293.3906 164.7844,293.2813 165.05,293.2813 C165.3313,293.2813 165.6125,293.4375 165.7844,293.6875 C165.8625,293.8438 165.8938,293.9844 165.8938,294.4219 L165.8938,297 L157.8938,297 C157.5031,297 157.2688,296.9531 157.1281,296.8281 C156.9094,296.6719 156.7688,296.4219 156.7688,296.1563 C156.7688,295.8594 156.925,295.5938 157.175,295.4219 C157.3313,295.3125 157.4875,295.2969 157.8938,295.2969 L158.1438,295.2969 L158.1438,288.7813 L157.8938,288.7813 C157.4719,288.7813 157.2844,288.75 157.1281,288.6406 C156.9094,288.4688 156.7688,288.2188 156.7688,287.9375 C156.7688,287.6563 156.925,287.3594 157.175,287.2031 C157.3313,287.1094 157.4563,287.0938 157.8938,287.0938 L165.5188,287.0938 L165.5188,289.6406 C165.5188,290.1094 165.4875,290.25 165.3781,290.4219 C165.2063,290.6406 164.9406,290.7813 164.675,290.7813 C164.3938,290.7813 164.1125,290.625 163.9406,290.375 C163.8625,290.2188 163.8313,290.0469 163.8313,289.6406 L163.8313,288.7813 L159.8469,288.7813 L159.8469,291.1875 L161.3,291.1875 L161.3,291.0625 C161.3,290.6094 161.3313,290.4531 161.4406,290.2813 C161.6125,290.0625 161.8781,289.9219 162.1281,289.9219 C162.5813,289.9219 162.8938,290.2344 162.9563,290.7031 C162.9719,290.8594 162.9719,290.9063 162.9719,291.0625 L162.9719,292.9844 C162.9719,293.4375 162.9406,293.5938 162.8156,293.75 C162.6594,293.9688 162.3938,294.1094 162.1438,294.1094 C161.8469,294.1094 161.5656,293.9531 161.4094,293.7031 C161.3313,293.5469 161.3,293.3906 161.3,292.9844 L161.3,292.875 Z "/><text fill="#000000" font-family="sans-serif" font-size="12" lengthAdjust="spacingAndGlyphs" textLength="46" x="181.45" y="296.1543">Запись</text><line style="stroke: #A80036; stroke-width: 1.5;" x1="121" x2="256" y1="308" y2="308"/><ellipse cx="131" cy="319.9023" fill="#000000" rx="3" ry="3" style="stroke: #000000; stroke-width: 1.0;"/><text fill="#000000" font-family="sans-serif" font-size="11" lengthAdjust="spacingAndGlyphs" textLength="111" x="140" y="322.2104">Дата : ДатаВремя</text><ellipse cx="131" cy="332.707" fill="#000000" rx="3" ry="3" style="stroke: #000000; stroke-width: 1.0;"/><text fill="#000000" font-family="sans-serif" font-size="11" lengthAdjust="spacingAndGlyphs" textLength="109" x="140" y="335.0151">Заголовок : Текст</text><text fill="#000000" font-family="sans-serif" font-size="11" lengthAdjust="spacingAndGlyphs" textLength="96" x="140" y="347.8198">Контент : Текст</text><line style="stroke: #A80036; stroke-width: 1.5;" x1="121" x2="256" y1="354.4141" y2="354.4141"/><!--class Событие--><rect fill="#FEFECE" filter="url(#f194z5jy6xpj7t)" height="73.6094" id="Событие" style="stroke: #A80036; stroke-width: 1.5;" width="129" x="6" y="428"/><ellipse cx="38.55" cy="444" fill="#ADD1B2" rx="11" ry="11" style="stroke: #A80036; stroke-width: 1.0;"/><path d="M36.8469,444.875 L36.8469,447.2969 L41.2063,447.2969 L41.2063,446.4219 C41.2063,445.9375 41.2375,445.7969 41.3469,445.6406 C41.5188,445.3906 41.7844,445.2813 42.05,445.2813 C42.3313,445.2813 42.6125,445.4375 42.7844,445.6875 C42.8625,445.8438 42.8938,445.9844 42.8938,446.4219 L42.8938,449 L34.8938,449 C34.5031,449 34.2688,448.9531 34.1281,448.8281 C33.9094,448.6719 33.7688,448.4219 33.7688,448.1563 C33.7688,447.8594 33.925,447.5938 34.175,447.4219 C34.3313,447.3125 34.4875,447.2969 34.8938,447.2969 L35.1438,447.2969 L35.1438,440.7813 L34.8938,440.7813 C34.4719,440.7813 34.2844,440.75 34.1281,440.6406 C33.9094,440.4688 33.7688,440.2188 33.7688,439.9375 C33.7688,439.6563 33.925,439.3594 34.175,439.2031 C34.3313,439.1094 34.4563,439.0938 34.8938,439.0938 L42.5188,439.0938 L42.5188,441.6406 C42.5188,442.1094 42.4875,442.25 42.3781,442.4219 C42.2063,442.6406 41.9406,442.7813 41.675,442.7813 C41.3938,442.7813 41.1125,442.625 40.9406,442.375 C40.8625,442.2188 40.8313,442.0469 40.8313,441.6406 L40.8313,440.7813 L36.8469,440.7813 L36.8469,443.1875 L38.3,443.1875 L38.3,443.0625 C38.3,442.6094 38.3313,442.4531 38.4406,442.2813 C38.6125,442.0625 38.8781,441.9219 39.1281,441.9219 C39.5813,441.9219 39.8938,442.2344 39.9563,442.7031 C39.9719,442.8594 39.9719,442.9063 39.9719,443.0625 L39.9719,444.9844 C39.9719,445.4375 39.9406,445.5938 39.8156,445.75 C39.6594,445.9688 39.3938,446.1094 39.1438,446.1094 C38.8469,446.1094 38.5656,445.9531 38.4094,445.7031 C38.3313,445.5469 38.3,445.3906 38.3,444.9844 L38.3,444.875 Z "/><text fill="#000000" font-family="sans-serif" font-size="12" lengthAdjust="spacingAndGlyphs" textLength="58" x="56.45" y="448.1543">Событие</text><line style="stroke: #A80036; stroke-width: 1.5;" x1="7" x2="134" y1="460" y2="460"/><ellipse cx="17" cy="471.9023" fill="#000000" rx="3" ry="3" style="stroke: #000000; stroke-width: 1.0;"/><text fill="#000000" font-family="sans-serif" font-size="11" lengthAdjust="spacingAndGlyphs" textLength="102" x="26" y="474.2104">Название : Текст</text><text fill="#000000" font-family="sans-serif" font-size="11" lengthAdjust="spacingAndGlyphs" textLength="103" x="26" y="487.0151">Описание : Текст</text><line style="stroke: #A80036; stroke-width: 1.5;" x1="7" x2="134" y1="493.6094" y2="493.6094"/><!--class Место--><rect fill="#FEFECE" filter="url(#f194z5jy6xpj7t)" height="73.6094" id="Место" style="stroke: #A80036; stroke-width: 1.5;" width="82" x="88.5" y="568"/><ellipse cx="107.1" cy="584" fill="#ADD1B2" rx="11" ry="11" style="stroke: #A80036; stroke-width: 1.0;"/><path d="M105.3969,584.875 L105.3969,587.2969 L109.7563,587.2969 L109.7563,586.4219 C109.7563,585.9375 109.7875,585.7969 109.8969,585.6406 C110.0688,585.3906 110.3344,585.2813 110.6,585.2813 C110.8813,585.2813 111.1625,585.4375 111.3344,585.6875 C111.4125,585.8438 111.4438,585.9844 111.4438,586.4219 L111.4438,589 L103.4438,589 C103.0531,589 102.8188,588.9531 102.6781,588.8281 C102.4594,588.6719 102.3188,588.4219 102.3188,588.1563 C102.3188,587.8594 102.475,587.5938 102.725,587.4219 C102.8813,587.3125 103.0375,587.2969 103.4438,587.2969 L103.6938,587.2969 L103.6938,580.7813 L103.4438,580.7813 C103.0219,580.7813 102.8344,580.75 102.6781,580.6406 C102.4594,580.4688 102.3188,580.2188 102.3188,579.9375 C102.3188,579.6563 102.475,579.3594 102.725,579.2031 C102.8813,579.1094 103.0063,579.0938 103.4438,579.0938 L111.0688,579.0938 L111.0688,581.6406 C111.0688,582.1094 111.0375,582.25 110.9281,582.4219 C110.7563,582.6406 110.4906,582.7813 110.225,582.7813 C109.9438,582.7813 109.6625,582.625 109.4906,582.375 C109.4125,582.2188 109.3813,582.0469 109.3813,581.6406 L109.3813,580.7813 L105.3969,580.7813 L105.3969,583.1875 L106.85,583.1875 L106.85,583.0625 C106.85,582.6094 106.8813,582.4531 106.9906,582.2813 C107.1625,582.0625 107.4281,581.9219 107.6781,581.9219 C108.1313,581.9219 108.4438,582.2344 108.5063,582.7031 C108.5219,582.8594 108.5219,582.9063 108.5219,583.0625 L108.5219,584.9844 C108.5219,585.4375 108.4906,585.5938 108.3656,585.75 C108.2094,585.9688 107.9438,586.1094 107.6938,586.1094 C107.3969,586.1094 107.1156,585.9531 106.9594,585.7031 C106.8813,585.5469 106.85,585.3906 106.85,584.9844 L106.85,584.875 Z "/><text fill="#000000" font-family="sans-serif" font-size="12" lengthAdjust="spacingAndGlyphs" textLength="42" x="121.9" y="588.1543">Место</text><line style="stroke: #A80036; stroke-width: 1.5;" x1="89.5" x2="169.5" y1="600" y2="600"/><ellipse cx="99.5" cy="611.9023" fill="#000000" rx="3" ry="3" style="stroke: #000000; stroke-width: 1.0;"/><text fill="#000000" font-family="sans-serif" font-size="11" lengthAdjust="spacingAndGlyphs" textLength="56" x="108.5" y="614.2104">Название</text><text fill="#000000" font-family="sans-serif" font-size="11" lengthAdjust="spacingAndGlyphs" textLength="35" x="108.5" y="627.0151">Адрес</text><line style="stroke: #A80036; stroke-width: 1.5;" x1="89.5" x2="169.5" y1="633.6094" y2="633.6094"/><!--class Статус_записи--><rect fill="#FEFECE" filter="url(#f194z5jy6xpj7t)" height="86.4141" id="Статус_записи" style="stroke: #A80036; stroke-width: 1.5;" width="131" x="242" y="422"/><ellipse cx="257" cy="438" fill="#EB937F" rx="11" ry="11" style="stroke: #A80036; stroke-width: 1.0;"/><path d="M255.2969,438.875 L255.2969,441.2969 L259.6563,441.2969 L259.6563,440.4219 C259.6563,439.9375 259.6875,439.7969 259.7969,439.6406 C259.9688,439.3906 260.2344,439.2813 260.5,439.2813 C260.7813,439.2813 261.0625,439.4375 261.2344,439.6875 C261.3125,439.8438 261.3438,439.9844 261.3438,440.4219 L261.3438,443 L253.3438,443 C252.9531,443 252.7188,442.9531 252.5781,442.8281 C252.3594,442.6719 252.2188,442.4219 252.2188,442.1563 C252.2188,441.8594 252.375,441.5938 252.625,441.4219 C252.7813,441.3125 252.9375,441.2969 253.3438,441.2969 L253.5938,441.2969 L253.5938,434.7813 L253.3438,434.7813 C252.9219,434.7813 252.7344,434.75 252.5781,434.6406 C252.3594,434.4688 252.2188,434.2188 252.2188,433.9375 C252.2188,433.6563 252.375,433.3594 252.625,433.2031 C252.7813,433.1094 252.9063,433.0938 253.3438,433.0938 L260.9688,433.0938 L260.9688,435.6406 C260.9688,436.1094 260.9375,436.25 260.8281,436.4219 C260.6563,436.6406 260.3906,436.7813 260.125,436.7813 C259.8438,436.7813 259.5625,436.625 259.3906,436.375 C259.3125,436.2188 259.2813,436.0469 259.2813,435.6406 L259.2813,434.7813 L255.2969,434.7813 L255.2969,437.1875 L256.75,437.1875 L256.75,437.0625 C256.75,436.6094 256.7813,436.4531 256.8906,436.2813 C257.0625,436.0625 257.3281,435.9219 257.5781,435.9219 C258.0313,435.9219 258.3438,436.2344 258.4063,436.7031 C258.4219,436.8594 258.4219,436.9063 258.4219,437.0625 L258.4219,438.9844 C258.4219,439.4375 258.3906,439.5938 258.2656,439.75 C258.1094,439.9688 257.8438,440.1094 257.5938,440.1094 C257.2969,440.1094 257.0156,439.9531 256.8594,439.7031 C256.7813,439.5469 256.75,439.3906 256.75,438.9844 L256.75,438.875 Z "/><text fill="#000000" font-family="sans-serif" font-size="12" lengthAdjust="spacingAndGlyphs" textLength="99" x="271" y="442.1543">Статус_записи</text><line style="stroke: #A80036; stroke-width: 1.5;" x1="243" x2="372" y1="454" y2="454"/><text fill="#000000" font-family="sans-serif" font-size="11" lengthAdjust="spacingAndGlyphs" textLength="85" x="248" y="468.2104">Опубликована</text><text fill="#000000" font-family="sans-serif" font-size="11" lengthAdjust="spacingAndGlyphs" textLength="57" x="248" y="481.0151">Черновик</text><text fill="#000000" font-family="sans-serif" font-size="11" lengthAdjust="spacingAndGlyphs" textLength="45" x="248" y="493.8198">Скрыта</text><line style="stroke: #A80036; stroke-width: 1.5;" x1="243" x2="372" y1="500.4141" y2="500.4141"/><!--link Блогер to Блог--><path d="M176.393,90.144 C175.535,104.225 175.536,119.801 176.394,133.88 " fill="none" id="Блогер-Блог" style="stroke: #A80036; stroke-width: 1.0;"/><line style="stroke: #A80036; stroke-width: 1.0;" x1="176.4032" x2="182.9823" y1="133.9962" y2="141.5272"/><line style="stroke: #A80036; stroke-width: 1.0;" x1="176.4032" x2="171.0157" y1="133.9962" y2="142.4208"/><line style="stroke: #A80036; stroke-width: 1.0;" x1="176.4032" x2="176.999" y1="133.9962" y2="141.974"/><line style="stroke: #A80036; stroke-width: 1.0;" x1="180.2432" x2="172.2654" y1="131.7039" y2="132.2996"/><line style="stroke: #A80036; stroke-width: 1.0;" x1="172.7082" x2="180.686" y1="85.761" y2="86.3568"/><line style="stroke: #A80036; stroke-width: 1.0;" x1="172.4848" x2="180.4626" y1="88.7527" y2="89.3484"/><line style="stroke: #A80036; stroke-width: 1.0;" x1="176.3992" x2="176.995" y1="90.0478" y2="82.07"/><!--link Блогер to Блог--><path d="M201.319,90.144 C202.227,104.225 202.227,119.801 201.318,133.88 " fill="none" id="Блогер-Блог-1" style="stroke: #A80036; stroke-width: 1.0;"/><line style="stroke: #A80036; stroke-width: 1.0;" x1="201.3094" x2="206.6593" y1="133.999" y2="142.4475"/><line style="stroke: #A80036; stroke-width: 1.0;" x1="201.3094" x2="194.6967" y1="133.999" y2="141.5005"/><line style="stroke: #A80036; stroke-width: 1.0;" x1="201.3094" x2="200.678" y1="133.999" y2="141.974"/><ellipse cx="201.7829" cy="128.0177" fill="none" rx="4" ry="4" style="stroke: #A80036; stroke-width: 1.0;"/><line style="stroke: #A80036; stroke-width: 1.0;" x1="197.0094" x2="204.9846" y1="86.3726" y2="85.7426"/><line style="stroke: #A80036; stroke-width: 1.0;" x1="197.2456" x2="205.2208" y1="89.3632" y2="88.7333"/><line style="stroke: #A80036; stroke-width: 1.0;" x1="201.312" x2="200.682" y1="90.0452" y2="82.07"/><!--link Блог to Запись--><path d="M176.486,224.604 C175.626,238.29 175.52,253.446 176.166,267.497 " fill="none" id="Блог-Запись" style="stroke: #A80036; stroke-width: 1.0;"/><line style="stroke: #A80036; stroke-width: 1.0;" x1="176.1739" x2="182.6241" y1="267.6352" y2="275.277"/><line style="stroke: #A80036; stroke-width: 1.0;" x1="176.1739" x2="170.6439" y1="267.6352" y2="275.967"/><line style="stroke: #A80036; stroke-width: 1.0;" x1="176.1739" x2="176.634" y1="267.6352" y2="275.622"/><ellipse cx="175.8289" cy="261.6452" fill="none" rx="4" ry="4" style="stroke: #A80036; stroke-width: 1.0;"/><line style="stroke: #A80036; stroke-width: 1.0;" x1="172.8303" x2="180.8071" y1="219.9421" y2="220.5507"/><line style="stroke: #A80036; stroke-width: 1.0;" x1="172.602" x2="180.5788" y1="222.9334" y2="223.542"/><line style="stroke: #A80036; stroke-width: 1.0;" x1="176.5143" x2="177.123" y1="224.2348" y2="216.258"/><!--link Запись to Блог--><path d="M201.559,267.497 C202.244,253.446 202.131,238.29 201.22,224.604 " fill="none" id="Запись-Блог" style="stroke: #A80036; stroke-width: 1.0;"/><line style="stroke: #A80036; stroke-width: 1.0;" x1="201.1898" x2="194.5664" y1="224.2321" y2="216.7401"/><line style="stroke: #A80036; stroke-width: 1.0;" x1="201.1898" x2="206.5276" y1="224.2321" y2="215.7759"/><line style="stroke: #A80036; stroke-width: 1.0;" x1="201.1898" x2="200.547" y1="224.2321" y2="216.258"/><ellipse cx="201.672" cy="230.2127" fill="none" rx="4" ry="4" style="stroke: #A80036; stroke-width: 1.0;"/><line style="stroke: #A80036; stroke-width: 1.0;" x1="201.5511" x2="207.0529" y1="267.6368" y2="275.9873"/><line style="stroke: #A80036; stroke-width: 1.0;" x1="201.5511" x2="195.0751" y1="267.6368" y2="275.2567"/><line style="stroke: #A80036; stroke-width: 1.0;" x1="201.5511" x2="201.064" y1="267.6368" y2="275.622"/><ellipse cx="201.9164" cy="261.648" fill="none" rx="4" ry="4" style="stroke: #A80036; stroke-width: 1.0;"/><!--link Запись to Статус_записи--><path d="M228.418,368.304 C240.915,383.426 254.709,400.119 267.23,415.27 " fill="none" id="Запись-Статус_записи" style="stroke: #A80036; stroke-width: 1.0;"/><line style="stroke: #A80036; stroke-width: 1.0;" x1="273.0461" x2="266.8795" y1="416.0295" y2="421.1259"/><line style="stroke: #A80036; stroke-width: 1.0;" x1="271.1349" x2="264.9684" y1="413.717" y2="418.8135"/><line style="stroke: #A80036; stroke-width: 1.0;" x1="267.4146" x2="272.511" y1="415.4944" y2="421.661"/><line style="stroke: #A80036; stroke-width: 1.0;" x1="228.3357" x2="217.0729" y1="368.2051" y2="362.038"/><line style="stroke: #A80036; stroke-width: 1.0;" x1="228.3357" x2="229.4071" y1="368.2051" y2="362.038"/><line style="stroke: #A80036; stroke-width: 1.0;" x1="228.3357" x2="223.24" y1="368.2051" y2="362.038"/><!--link Запись to Событие--><path d="M148.776,368.477 C134.813,385.516 119.232,404.53 105.6703,421.08 " fill="none" id="Запись-Событие" style="stroke: #A80036; stroke-width: 1.0;"/><line style="stroke: #A80036; stroke-width: 1.0;" x1="105.4552" x2="105.0258" y1="421.342" y2="431.3328"/><line style="stroke: #A80036; stroke-width: 1.0;" x1="105.4552" x2="95.7438" y1="421.342" y2="423.7272"/><line style="stroke: #A80036; stroke-width: 1.0;" x1="105.4552" x2="100.3848" y1="421.342" y2="427.53"/><ellipse cx="109.2579" cy="416.701" fill="none" rx="4" ry="4" style="stroke: #A80036; stroke-width: 1.0;"/><line style="stroke: #A80036; stroke-width: 1.0;" x1="148.9814" x2="149.4111" y1="368.2258" y2="358.2351"/><line style="stroke: #A80036; stroke-width: 1.0;" x1="148.9814" x2="158.6929" y1="368.2258" y2="365.8409"/><line style="stroke: #A80036; stroke-width: 1.0;" x1="148.9814" x2="154.052" y1="368.2258" y2="362.038"/><line style="stroke: #A80036; stroke-width: 1.0;" x1="144.6199" x2="150.8077" y1="367.2375" y2="372.3081"/><!--link Запись to Место--><path d="M179.456,370.631 C172.526,408.545 162.487,461.639 152.5,508 C148.84,524.99 144.471,543.5828 140.528,559.8432 " fill="none" id="Запись-Место" style="stroke: #A80036; stroke-width: 1.0;"/><line style="stroke: #A80036; stroke-width: 1.0;" x1="140.5271" x2="144.4612" y1="559.8487" y2="569.0423"/><line style="stroke: #A80036; stroke-width: 1.0;" x1="140.5271" x2="132.8028" y1="559.8487" y2="566.1997"/><line style="stroke: #A80036; stroke-width: 1.0;" x1="140.5271" x2="138.632" y1="559.8487" y2="567.621"/><ellipse cx="141.9484" cy="554.0195" fill="none" rx="4" ry="4" style="stroke: #A80036; stroke-width: 1.0;"/><line style="stroke: #A80036; stroke-width: 1.0;" x1="179.541" x2="175.071" y1="370.1696" y2="361.2243"/><line style="stroke: #A80036; stroke-width: 1.0;" x1="179.541" x2="186.877" y1="370.1696" y2="363.3737"/><line style="stroke: #A80036; stroke-width: 1.0;" x1="179.541" x2="180.974" y1="370.1696" y2="362.299"/><line style="stroke: #A80036; stroke-width: 1.0;" x1="175.2475" x2="183.1181" y1="371.4208" y2="372.8538"/><!--link Запись to Блогер--><path d="M244.468,269.694 C258.636,254.144 271.962,235.772 279.5,216 C291.216,185.269 291.679,172.551 279.5,142 C271.392,121.661 256.701,103.156 241.455,87.94 " fill="none" id="Запись-Блогер" style="stroke: #A80036; stroke-width: 1.0;"/><line style="stroke: #A80036; stroke-width: 1.0;" x1="241.1205" x2="231.1983" y1="87.6176" y2="86.3723"/><line style="stroke: #A80036; stroke-width: 1.0;" x1="241.1205" x2="239.5377" y1="87.6176" y2="77.7437"/><line style="stroke: #A80036; stroke-width: 1.0;" x1="241.1205" x2="235.368" y1="87.6176" y2="82.058"/><ellipse cx="245.4348" cy="91.7873" fill="none" rx="4" ry="4" style="stroke: #A80036; stroke-width: 1.0;"/><line style="stroke: #A80036; stroke-width: 1.0;" x1="244.2714" x2="243.1654" y1="269.9042" y2="279.8428"/><line style="stroke: #A80036; stroke-width: 1.0;" x1="244.2714" x2="234.4206" y1="269.9042" y2="271.6252"/><line style="stroke: #A80036; stroke-width: 1.0;" x1="244.2714" x2="238.793" y1="269.9042" y2="275.734"/><ellipse cx="248.3802" cy="265.5318" fill="none" rx="4" ry="4" style="stroke: #A80036; stroke-width: 1.0;"/><!--link Событие to Место--><path d="M89.3438,510.075 C96.2102,526.136 103.9664,544.2774 110.819,560.3046 " fill="none" id="Событие-Место" style="stroke: #A80036; stroke-width: 1.0;"/><line style="stroke: #A80036; stroke-width: 1.0;" x1="110.9575" x2="119.6191" y1="560.6282" y2="565.6259"/><line style="stroke: #A80036; stroke-width: 1.0;" x1="110.9575" x2="108.5849" y1="560.6282" y2="570.3427"/><line style="stroke: #A80036; stroke-width: 1.0;" x1="110.9575" x2="114.102" y1="560.6282" y2="567.9843"/><ellipse cx="108.599" cy="555.1112" fill="none" rx="4" ry="4" style="stroke: #A80036; stroke-width: 1.0;"/><line style="stroke: #A80036; stroke-width: 1.0;" x1="89.1472" x2="80.4849" y1="509.6136" y2="504.6172"/><line style="stroke: #A80036; stroke-width: 1.0;" x1="89.1472" x2="91.5183" y1="509.6136" y2="499.8988"/><line style="stroke: #A80036; stroke-width: 1.0;" x1="89.1472" x2="86.0016" y1="509.6136" y2="502.258"/><ellipse cx="91.5064" cy="515.1303" fill="none" rx="4" ry="4" style="stroke: #A80036; stroke-width: 1.0;"/><!--
@startuml
entity Блогер {
* Имя : Текст
Комментарий : Текст
}

entity Блог {
* Владелец : Счетчик
Записи : Счетчик
}

entity Запись {
* Дата : ДатаВремя
* Заголовок : Текст
Контент : Текст
}

entity Событие {
* Название : Текст
Описание : Текст
}

entity Место {
* Название
Адрес
}

enum Статус_записи {
Опубликована
Черновик
Скрыта
}


Блогер ||- -|{ Блог
Блогер ||- -o{ Блог
Блог ||- -o{ Запись
Запись }- -|| Статус_записи
Запись }o- -o{ Блог
Запись }|- -o{ Событие
Запись }|- -o{ Место
Запись }o- -o{ Блогер
Событие }o- -o{ Место
@enduml

PlantUML version 1.2019.08(Sat Jul 13 19:25:14 UTC 2019)
(GPL source distribution)
Java Runtime: Java(TM) SE Runtime Environment
JVM: Java HotSpot(TM) 64-Bit Server VM
Java Version: 1.7.0_25-b15
Operating System: Linux
Default Encoding: UTF-8
Language: en
Country: US
--></g></svg>