<?xml version="1.0" encoding="UTF-8" standalone="no"?><svg xmlns="http://www.w3.org/2000/svg" xmlns:xlink="http://www.w3.org/1999/xlink" contentScriptType="application/ecmascript" contentStyleType="text/css" height="462px" preserveAspectRatio="none" style="width:550px;height:462px;" version="1.1" viewBox="0 0 550 462" width="550px" zoomAndPan="magnify"><defs><filter height="300%" id="f145ist9xthbxw" width="300%" x="-1" y="-1"><feGaussianBlur result="blurOut" stdDeviation="2.0"/><feColorMatrix in="blurOut" result="blurOut2" type="matrix" values="0 0 0 0 0 0 0 0 0 0 0 0 0 0 0 0 0 0 .4 0"/><feOffset dx="4.0" dy="4.0" in="blurOut2" result="blurOut3"/><feBlend in="SourceGraphic" in2="blurOut3" mode="normal"/></filter></defs><g><!--class Статус_записи--><rect fill="#FFFFFF" filter="url(#f145ist9xthbxw)" height="89.5078" id="Статус_записи" style="stroke: #000000; stroke-width: 1.5;" width="116" x="6" y="219.5"/><ellipse cx="21" cy="235.5" fill="#EB937F" rx="11" ry="11" style="stroke: #000000; stroke-width: 1.0;"/><path d="M19.8594,236.2969 L19.8594,238.7969 L24.1875,238.7969 L24.1875,237.875 Q24.1875,237.2656 24.4297,237 Q24.6719,236.7344 25.0469,236.7344 Q25.4219,236.7344 25.6563,237 Q25.8906,237.2656 25.8906,237.875 L25.8906,240.5 L17.8906,240.5 Q17.2656,240.5 17.0078,240.2656 Q16.75,240.0313 16.75,239.6406 Q16.75,239.2656 17.0156,239.0313 Q17.2813,238.7969 17.8906,238.7969 L18.1563,238.7969 L18.1563,232.1406 L17.8906,232.1406 Q17.2656,232.1406 17.0078,231.9063 Q16.75,231.6719 16.75,231.2813 Q16.75,230.9063 17.0078,230.6719 Q17.2656,230.4375 17.8906,230.4375 L25.5156,230.4375 L25.5156,233.0313 Q25.5156,233.6406 25.2891,233.8984 Q25.0625,234.1563 24.6719,234.1563 Q24.2969,234.1563 24.0625,233.8984 Q23.8281,233.6406 23.8281,233.0313 L23.8281,232.1406 L19.8594,232.1406 L19.8594,234.5938 L21.3438,234.5938 Q21.3438,233.9375 21.4688,233.75 Q21.7344,233.3438 22.2031,233.3438 Q22.5781,233.3438 22.8125,233.6016 Q23.0469,233.8594 23.0469,234.4688 L23.0469,236.4375 Q23.0469,236.9844 22.9219,237.1719 Q22.6563,237.5625 22.2031,237.5625 Q21.7344,237.5625 21.4688,237.1563 Q21.3438,236.9688 21.3438,236.2969 L19.8594,236.2969 Z "/><text fill="#000000" font-family="sans-serif" font-size="12" lengthAdjust="spacingAndGlyphs" textLength="84" x="35" y="240.4102">Статус_записи</text><line style="stroke: #000000; stroke-width: 1.5;" x1="7" x2="121" y1="251.5" y2="251.5"/><text fill="#000000" font-family="sans-serif" font-size="11" lengthAdjust="spacingAndGlyphs" textLength="74" x="12" y="266.9189">Опубликована</text><text fill="#000000" font-family="sans-serif" font-size="11" lengthAdjust="spacingAndGlyphs" textLength="48" x="12" y="280.7549">Черновик</text><text fill="#000000" font-family="sans-serif" font-size="11" lengthAdjust="spacingAndGlyphs" textLength="38" x="12" y="294.5908">Скрыта</text><line style="stroke: #000000; stroke-width: 1.5;" x1="7" x2="121" y1="301.0078" y2="301.0078"/><!--class Блогер--><rect fill="#FFFFFF" filter="url(#f145ist9xthbxw)" height="75.6719" id="Блогер" style="stroke: #000000; stroke-width: 1.5;" width="135" x="174.5" y="376"/><ellipse cx="217.85" cy="392" fill="#ADD1B2" rx="11" ry="11" style="stroke: #000000; stroke-width: 1.0;"/><path d="M220.6156,387.875 Q220.7719,387.6563 220.9594,387.5469 Q221.1469,387.4375 221.3656,387.4375 Q221.7406,387.4375 221.975,387.6953 Q222.2094,387.9531 222.2094,388.5625 L222.2094,390.0156 Q222.2094,390.625 221.975,390.8906 Q221.7406,391.1563 221.3656,391.1563 Q221.0219,391.1563 220.8188,390.9531 Q220.6156,390.7656 220.5063,390.25 Q220.4594,389.8906 220.2719,389.7031 Q219.9438,389.3281 219.3344,389.1094 Q218.725,388.8906 218.1,388.8906 Q217.3344,388.8906 216.7016,389.2188 Q216.0688,389.5469 215.5766,390.2969 Q215.0844,391.0469 215.0844,392.0781 L215.0844,393.1719 Q215.0844,394.4063 215.975,395.2266 Q216.8656,396.0469 218.4594,396.0469 Q219.3969,396.0469 220.0531,395.7969 Q220.4438,395.6406 220.8656,395.2031 Q221.1313,394.9375 221.2797,394.8594 Q221.4281,394.7813 221.6313,394.7813 Q221.9594,394.7813 222.2172,395.0391 Q222.475,395.2969 222.475,395.6406 Q222.475,395.9844 222.1313,396.3906 Q221.6313,396.9688 220.8344,397.2969 Q219.7563,397.75 218.4594,397.75 Q216.9438,397.75 215.7406,397.125 Q214.7563,396.625 214.0688,395.5547 Q213.3813,394.4844 213.3813,393.2031 L213.3813,392.0469 Q213.3813,390.7188 213.9984,389.5703 Q214.6156,388.4219 215.7094,387.8047 Q216.8031,387.1875 218.0375,387.1875 Q218.7719,387.1875 219.4203,387.3516 Q220.0688,387.5156 220.6156,387.875 Z "/><text fill="#000000" font-family="sans-serif" font-size="12" lengthAdjust="spacingAndGlyphs" textLength="40" x="238.15" y="396.9102">Блогер</text><line style="stroke: #000000; stroke-width: 1.5;" x1="175.5" x2="308.5" y1="408" y2="408"/><ellipse cx="185.5" cy="419" fill="#000000" rx="3" ry="3" style="stroke: #000000; stroke-width: 1.0;"/><text fill="#000000" font-family="sans-serif" font-size="11" lengthAdjust="spacingAndGlyphs" textLength="61" x="194.5" y="423.4189">Имя : Текст</text><text fill="#000000" font-family="sans-serif" font-size="11" lengthAdjust="spacingAndGlyphs" textLength="109" x="194.5" y="437.2549">Комментарий : Текст</text><line style="stroke: #000000; stroke-width: 1.5;" x1="175.5" x2="308.5" y1="443.6719" y2="443.6719"/><!--class Блог--><rect fill="#FFFFFF" filter="url(#f145ist9xthbxw)" height="103.3438" id="Блог" style="stroke: #000000; stroke-width: 1.5;" width="170" x="157" y="213"/><ellipse cx="224.75" cy="229" fill="#ADD1B2" rx="11" ry="11" style="stroke: #000000; stroke-width: 1.0;"/><path d="M227.5156,224.875 Q227.6719,224.6563 227.8594,224.5469 Q228.0469,224.4375 228.2656,224.4375 Q228.6406,224.4375 228.875,224.6953 Q229.1094,224.9531 229.1094,225.5625 L229.1094,227.0156 Q229.1094,227.625 228.875,227.8906 Q228.6406,228.1563 228.2656,228.1563 Q227.9219,228.1563 227.7188,227.9531 Q227.5156,227.7656 227.4063,227.25 Q227.3594,226.8906 227.1719,226.7031 Q226.8438,226.3281 226.2344,226.1094 Q225.625,225.8906 225,225.8906 Q224.2344,225.8906 223.6016,226.2188 Q222.9688,226.5469 222.4766,227.2969 Q221.9844,228.0469 221.9844,229.0781 L221.9844,230.1719 Q221.9844,231.4063 222.875,232.2266 Q223.7656,233.0469 225.3594,233.0469 Q226.2969,233.0469 226.9531,232.7969 Q227.3438,232.6406 227.7656,232.2031 Q228.0313,231.9375 228.1797,231.8594 Q228.3281,231.7813 228.5313,231.7813 Q228.8594,231.7813 229.1172,232.0391 Q229.375,232.2969 229.375,232.6406 Q229.375,232.9844 229.0313,233.3906 Q228.5313,233.9688 227.7344,234.2969 Q226.6563,234.75 225.3594,234.75 Q223.8438,234.75 222.6406,234.125 Q221.6563,233.625 220.9688,232.5547 Q220.2813,231.4844 220.2813,230.2031 L220.2813,229.0469 Q220.2813,227.7188 220.8984,226.5703 Q221.5156,225.4219 222.6094,224.8047 Q223.7031,224.1875 224.9375,224.1875 Q225.6719,224.1875 226.3203,224.3516 Q226.9688,224.5156 227.5156,224.875 Z "/><text fill="#000000" font-family="sans-serif" font-size="12" lengthAdjust="spacingAndGlyphs" textLength="26" x="245.25" y="233.9102">Блог</text><line style="stroke: #000000; stroke-width: 1.5;" x1="158" x2="326" y1="245" y2="245"/><ellipse cx="168" cy="256" fill="#000000" rx="3" ry="3" style="stroke: #000000; stroke-width: 1.0;"/><text fill="#000000" font-family="sans-serif" font-size="11" lengthAdjust="spacingAndGlyphs" textLength="120" x="177" y="260.4189">Владелец : id {{Блогер}}</text><ellipse cx="168" cy="269.8359" fill="#000000" rx="3" ry="3" style="stroke: #000000; stroke-width: 1.0;"/><text fill="#000000" font-family="sans-serif" font-size="11" lengthAdjust="spacingAndGlyphs" textLength="91" x="177" y="274.2549">Заголовок : Текст</text><ellipse cx="168" cy="283.6719" fill="#000000" rx="3" ry="3" style="stroke: #000000; stroke-width: 1.0;"/><text fill="#000000" font-family="sans-serif" font-size="11" lengthAdjust="spacingAndGlyphs" textLength="144" x="177" y="288.0908">Дата создания : ДатаВремя</text><text fill="#000000" font-family="sans-serif" font-size="11" lengthAdjust="spacingAndGlyphs" textLength="88" x="177" y="301.9268">Описание : Текст</text><line style="stroke: #000000; stroke-width: 1.5;" x1="158" x2="326" y1="308.3438" y2="308.3438"/><!--class Запись--><rect fill="#FFFFFF" filter="url(#f145ist9xthbxw)" height="144.8516" id="Запись" style="stroke: #000000; stroke-width: 1.5;" width="253" x="206.5" y="8"/><ellipse cx="308.25" cy="24" fill="#ADD1B2" rx="11" ry="11" style="stroke: #000000; stroke-width: 1.0;"/><path d="M311.0156,19.875 Q311.1719,19.6563 311.3594,19.5469 Q311.5469,19.4375 311.7656,19.4375 Q312.1406,19.4375 312.375,19.6953 Q312.6094,19.9531 312.6094,20.5625 L312.6094,22.0156 Q312.6094,22.625 312.375,22.8906 Q312.1406,23.1563 311.7656,23.1563 Q311.4219,23.1563 311.2188,22.9531 Q311.0156,22.7656 310.9063,22.25 Q310.8594,21.8906 310.6719,21.7031 Q310.3438,21.3281 309.7344,21.1094 Q309.125,20.8906 308.5,20.8906 Q307.7344,20.8906 307.1016,21.2188 Q306.4688,21.5469 305.9766,22.2969 Q305.4844,23.0469 305.4844,24.0781 L305.4844,25.1719 Q305.4844,26.4063 306.375,27.2266 Q307.2656,28.0469 308.8594,28.0469 Q309.7969,28.0469 310.4531,27.7969 Q310.8438,27.6406 311.2656,27.2031 Q311.5313,26.9375 311.6797,26.8594 Q311.8281,26.7813 312.0313,26.7813 Q312.3594,26.7813 312.6172,27.0391 Q312.875,27.2969 312.875,27.6406 Q312.875,27.9844 312.5313,28.3906 Q312.0313,28.9688 311.2344,29.2969 Q310.1563,29.75 308.8594,29.75 Q307.3438,29.75 306.1406,29.125 Q305.1563,28.625 304.4688,27.5547 Q303.7813,26.4844 303.7813,25.2031 L303.7813,24.0469 Q303.7813,22.7188 304.3984,21.5703 Q305.0156,20.4219 306.1094,19.8047 Q307.2031,19.1875 308.4375,19.1875 Q309.1719,19.1875 309.8203,19.3516 Q310.4688,19.5156 311.0156,19.875 Z "/><text fill="#000000" font-family="sans-serif" font-size="12" lengthAdjust="spacingAndGlyphs" textLength="41" x="328.75" y="28.9102">Запись</text><line style="stroke: #000000; stroke-width: 1.5;" x1="207.5" x2="458.5" y1="40" y2="40"/><ellipse cx="217.5" cy="51" fill="#000000" rx="3" ry="3" style="stroke: #000000; stroke-width: 1.0;"/><text fill="#000000" font-family="sans-serif" font-size="11" lengthAdjust="spacingAndGlyphs" textLength="82" x="226.5" y="55.4189">Блог : id {{Блог}}</text><ellipse cx="217.5" cy="64.8359" fill="#000000" rx="3" ry="3" style="stroke: #000000; stroke-width: 1.0;"/><text fill="#000000" font-family="sans-serif" font-size="11" lengthAdjust="spacingAndGlyphs" textLength="91" x="226.5" y="69.2549">Заголовок : Текст</text><ellipse cx="217.5" cy="78.6719" fill="#000000" rx="3" ry="3" style="stroke: #000000; stroke-width: 1.0;"/><text fill="#000000" font-family="sans-serif" font-size="11" lengthAdjust="spacingAndGlyphs" textLength="81" x="226.5" y="83.0908">Контент : Текст</text><ellipse cx="217.5" cy="92.5078" fill="#000000" rx="3" ry="3" style="stroke: #000000; stroke-width: 1.0;"/><text fill="#000000" font-family="sans-serif" font-size="11" lengthAdjust="spacingAndGlyphs" textLength="152" x="226.5" y="96.9268">Дата изменения : ДатаВремя</text><ellipse cx="217.5" cy="106.3438" fill="#000000" rx="3" ry="3" style="stroke: #000000; stroke-width: 1.0;"/><text fill="#000000" font-family="sans-serif" font-size="11" lengthAdjust="spacingAndGlyphs" textLength="227" x="226.5" y="110.7627">Статус : Элемент списка {{Статус_записи}}</text><text fill="#000000" font-family="sans-serif" font-size="11" lengthAdjust="spacingAndGlyphs" textLength="126" x="226.5" y="124.5986">События : id {{Событие}}</text><text fill="#000000" font-family="sans-serif" font-size="11" lengthAdjust="spacingAndGlyphs" textLength="100" x="226.5" y="138.4346">Места : id {{Место}}</text><line style="stroke: #000000; stroke-width: 1.5;" x1="207.5" x2="458.5" y1="144.8516" y2="144.8516"/><!--class Событие--><rect fill="#FFFFFF" filter="url(#f145ist9xthbxw)" height="103.3438" id="Событие" style="stroke: #000000; stroke-width: 1.5;" width="126" x="362" y="213"/><ellipse cx="396.35" cy="229" fill="#ADD1B2" rx="11" ry="11" style="stroke: #000000; stroke-width: 1.0;"/><path d="M399.1156,224.875 Q399.2719,224.6563 399.4594,224.5469 Q399.6469,224.4375 399.8656,224.4375 Q400.2406,224.4375 400.475,224.6953 Q400.7094,224.9531 400.7094,225.5625 L400.7094,227.0156 Q400.7094,227.625 400.475,227.8906 Q400.2406,228.1563 399.8656,228.1563 Q399.5219,228.1563 399.3188,227.9531 Q399.1156,227.7656 399.0063,227.25 Q398.9594,226.8906 398.7719,226.7031 Q398.4438,226.3281 397.8344,226.1094 Q397.225,225.8906 396.6,225.8906 Q395.8344,225.8906 395.2016,226.2188 Q394.5688,226.5469 394.0766,227.2969 Q393.5844,228.0469 393.5844,229.0781 L393.5844,230.1719 Q393.5844,231.4063 394.475,232.2266 Q395.3656,233.0469 396.9594,233.0469 Q397.8969,233.0469 398.5531,232.7969 Q398.9438,232.6406 399.3656,232.2031 Q399.6313,231.9375 399.7797,231.8594 Q399.9281,231.7813 400.1313,231.7813 Q400.4594,231.7813 400.7172,232.0391 Q400.975,232.2969 400.975,232.6406 Q400.975,232.9844 400.6313,233.3906 Q400.1313,233.9688 399.3344,234.2969 Q398.2563,234.75 396.9594,234.75 Q395.4438,234.75 394.2406,234.125 Q393.2563,233.625 392.5688,232.5547 Q391.8813,231.4844 391.8813,230.2031 L391.8813,229.0469 Q391.8813,227.7188 392.4984,226.5703 Q393.1156,225.4219 394.2094,224.8047 Q395.3031,224.1875 396.5375,224.1875 Q397.2719,224.1875 397.9203,224.3516 Q398.5688,224.5156 399.1156,224.875 Z "/><text fill="#000000" font-family="sans-serif" font-size="12" lengthAdjust="spacingAndGlyphs" textLength="51" x="414.65" y="233.9102">Событие</text><line style="stroke: #000000; stroke-width: 1.5;" x1="363" x2="487" y1="245" y2="245"/><ellipse cx="373" cy="256" fill="#000000" rx="3" ry="3" style="stroke: #000000; stroke-width: 1.0;"/><text fill="#000000" font-family="sans-serif" font-size="11" lengthAdjust="spacingAndGlyphs" textLength="87" x="382" y="260.4189">Название : Текст</text><ellipse cx="373" cy="269.8359" fill="#000000" rx="3" ry="3" style="stroke: #000000; stroke-width: 1.0;"/><text fill="#000000" font-family="sans-serif" font-size="11" lengthAdjust="spacingAndGlyphs" textLength="94" x="382" y="274.2549">Дата : ДатаВремя</text><text fill="#000000" font-family="sans-serif" font-size="11" lengthAdjust="spacingAndGlyphs" textLength="88" x="382" y="288.0908">Описание : Текст</text><text fill="#000000" font-family="sans-serif" font-size="11" lengthAdjust="spacingAndGlyphs" textLength="100" x="382" y="301.9268">Место : id {{Место}}</text><line style="stroke: #000000; stroke-width: 1.5;" x1="363" x2="487" y1="308.3438" y2="308.3438"/><!--class Место--><rect fill="#FFFFFF" filter="url(#f145ist9xthbxw)" height="75.6719" id="Место" style="stroke: #000000; stroke-width: 1.5;" width="113" x="426.5" y="376"/><ellipse cx="462.65" cy="392" fill="#ADD1B2" rx="11" ry="11" style="stroke: #000000; stroke-width: 1.0;"/><path d="M465.4156,387.875 Q465.5719,387.6563 465.7594,387.5469 Q465.9469,387.4375 466.1656,387.4375 Q466.5406,387.4375 466.775,387.6953 Q467.0094,387.9531 467.0094,388.5625 L467.0094,390.0156 Q467.0094,390.625 466.775,390.8906 Q466.5406,391.1563 466.1656,391.1563 Q465.8219,391.1563 465.6188,390.9531 Q465.4156,390.7656 465.3063,390.25 Q465.2594,389.8906 465.0719,389.7031 Q464.7438,389.3281 464.1344,389.1094 Q463.525,388.8906 462.9,388.8906 Q462.1344,388.8906 461.5016,389.2188 Q460.8688,389.5469 460.3766,390.2969 Q459.8844,391.0469 459.8844,392.0781 L459.8844,393.1719 Q459.8844,394.4063 460.775,395.2266 Q461.6656,396.0469 463.2594,396.0469 Q464.1969,396.0469 464.8531,395.7969 Q465.2438,395.6406 465.6656,395.2031 Q465.9313,394.9375 466.0797,394.8594 Q466.2281,394.7813 466.4313,394.7813 Q466.7594,394.7813 467.0172,395.0391 Q467.275,395.2969 467.275,395.6406 Q467.275,395.9844 466.9313,396.3906 Q466.4313,396.9688 465.6344,397.2969 Q464.5563,397.75 463.2594,397.75 Q461.7438,397.75 460.5406,397.125 Q459.5563,396.625 458.8688,395.5547 Q458.1813,394.4844 458.1813,393.2031 L458.1813,392.0469 Q458.1813,390.7188 458.7984,389.5703 Q459.4156,388.4219 460.5094,387.8047 Q461.6031,387.1875 462.8375,387.1875 Q463.5719,387.1875 464.2203,387.3516 Q464.8688,387.5156 465.4156,387.875 Z "/><text fill="#000000" font-family="sans-serif" font-size="12" lengthAdjust="spacingAndGlyphs" textLength="34" x="481.35" y="396.9102">Место</text><line style="stroke: #000000; stroke-width: 1.5;" x1="427.5" x2="538.5" y1="408" y2="408"/><ellipse cx="437.5" cy="419" fill="#000000" rx="3" ry="3" style="stroke: #000000; stroke-width: 1.0;"/><text fill="#000000" font-family="sans-serif" font-size="11" lengthAdjust="spacingAndGlyphs" textLength="87" x="446.5" y="423.4189">Название : Текст</text><text fill="#000000" font-family="sans-serif" font-size="11" lengthAdjust="spacingAndGlyphs" textLength="70" x="446.5" y="437.2549">Адрес : Текст</text><line style="stroke: #000000; stroke-width: 1.5;" x1="427.5" x2="538.5" y1="443.6719" y2="443.6719"/><!--link Блог to Блогер--><path d="M242,316.261 C242,333.171 242,351.873 242,368.2899 " fill="none" id="Блог-&gt;Блогер" style="stroke: #000000; stroke-width: 1.0;"/><line style="stroke: #000000; stroke-width: 1.0;" x1="246" x2="238" y1="371.6574" y2="371.6574"/><line style="stroke: #000000; stroke-width: 1.0;" x1="246" x2="238" y1="368.6574" y2="368.6574"/><line style="stroke: #000000; stroke-width: 1.0;" x1="242" x2="242" y1="367.6574" y2="375.6574"/><!--link Запись to Блог--><path d="M297.165,153.17 C288.339,170.821 279.005,189.489 270.575,206.35 " fill="none" id="Запись-&gt;Блог" style="stroke: #000000; stroke-width: 1.0;"/><line style="stroke: #000000; stroke-width: 1.0;" x1="272.6357" x2="265.4806" y1="211.1736" y2="207.5953"/><line style="stroke: #000000; stroke-width: 1.0;" x1="273.9776" x2="266.8225" y1="208.4905" y2="204.9121"/><line style="stroke: #000000; stroke-width: 1.0;" x1="270.8474" x2="267.269" y1="205.8069" y2="212.962"/><!--link Запись to Статус_записи--><path d="M227.07,153.17 C193.576,175.831 157.604,200.169 127.99,220.206 " fill="none" id="Запись-&gt;Статус_записи" style="stroke: #000000; stroke-width: 1.0;"/><line style="stroke: #000000; stroke-width: 1.0;" x1="127.7093" x2="123.227" y1="225.226" y2="218.5997"/><line style="stroke: #000000; stroke-width: 1.0;" x1="130.1942" x2="125.7119" y1="223.5451" y2="216.9188"/><line style="stroke: #000000; stroke-width: 1.0;" x1="128.7814" x2="122.155" y1="219.6717" y2="224.154"/><!--link Запись to Событие--><path d="M369.229,153.17 C377.993,170.509 387.254,188.829 395.658,205.453 " fill="none" id="Запись-&gt;Событие" style="stroke: #000000; stroke-width: 1.0;"/><line style="stroke: #000000; stroke-width: 1.0;" x1="395.8445" x2="404.8079" y1="205.8221" y2="210.2556"/><line style="stroke: #000000; stroke-width: 1.0;" x1="395.8445" x2="394.0981" y1="205.8221" y2="215.6684"/><line style="stroke: #000000; stroke-width: 1.0;" x1="395.8445" x2="399.453" y1="205.8221" y2="212.962"/><ellipse cx="393.1381" cy="200.4671" fill="none" rx="4" ry="4" style="stroke: #000000; stroke-width: 1.0;"/><!--link Запись to Место--><path d="M457.856,153.287 C477.309,170.261 494.685,190.187 506,213 C530.342,262.079 516.253,326.035 501.669,368.2517 " fill="none" id="Запись-&gt;Место" style="stroke: #000000; stroke-width: 1.0;"/><line style="stroke: #000000; stroke-width: 1.0;" x1="501.638" x2="504.5999" y1="368.3383" y2="377.8896"/><line style="stroke: #000000; stroke-width: 1.0;" x1="501.638" x2="493.2981" y1="368.3383" y2="373.8562"/><line style="stroke: #000000; stroke-width: 1.0;" x1="501.638" x2="498.949" y1="368.3383" y2="375.8729"/><ellipse cx="503.6547" cy="362.6874" fill="none" rx="4" ry="4" style="stroke: #000000; stroke-width: 1.0;"/><!--link Событие to Место--><path d="M444.96,316.261 C451.55,333.019 458.831,351.536 465.244,367.8456 " fill="none" id="Событие-&gt;Место" style="stroke: #000000; stroke-width: 1.0;"/><line style="stroke: #000000; stroke-width: 1.0;" x1="464.29" x2="468.316" y1="365.4206" y2="375.6574"/><ellipse cx="464.29" cy="365.4206" fill="none" rx="4" ry="4" style="stroke: #000000; stroke-width: 1.0;"/><line style="stroke: #000000; stroke-width: 1.0;" x1="470.5745" x2="463.1296" y1="370.471" y2="373.3989"/><!--
@startuml
skinparam BackgroundColor #FFFFFF
skinparam ArrowColor #000000

skinparam titleBorderRoundCorner 15
skinparam titleBorderThickness 2
skinparam titleBorderColor Red
skinparam titleBackgroundColor Cyan

skinparam ClassBorderColor #000000
skinparam ClassBackgroundColor #FFFFFF

enum Статус_записи {
Опубликована
Черновик
Скрыта
}


class Блогер {
* Имя : Текст
Комментарий : Текст
}

class Блог {
* Владелец : id {{Блогер}}
* Заголовок : Текст
* Дата создания : ДатаВремя
Описание : Текст
}

class Запись {
* Блог : id {{Блог}}
* Заголовок : Текст
* Контент : Текст
* Дата изменения : ДатаВремя
* Статус : Элемент списка {{Статус_записи}}
События : id {{Событие}}
Места : id {{Место}}
}

class Событие {
* Название : Текст
* Дата : ДатаВремя
Описание : Текст
Место : id {{Место}}
}

class Место {
* Название : Текст
Адрес : Текст
}


Блог - -|| Блогер
Запись - -|| Блог
Запись - -|| Статус_записи
Запись - -o{ Событие
Запись - -o{ Место
Событие - -o| Место

@enduml

PlantUML version 1.2019.09(Mon Aug 26 23:19:51 GMT+07:00 2019)
(GPL source distribution)
Java Runtime: Java(TM) SE Runtime Environment
JVM: Java HotSpot(TM) 64-Bit Server VM
Java Version: 1.8.0_221-b11
Operating System: Windows 7
OS Version: 6.1
Default Encoding: Cp1251
Language: ru
Country: RU
--></g></svg>